<svg viewBox="-0.81 0.33 362.97164404223224 272.83" style="max-height: 500px" y="0" x="0" xmlns:xlink="http://www.w3.org/1999/xlink" xmlns="http://www.w3.org/2000/svg" width="362.97164404223224" height="272.83">
        
        <g transform="matrix(0.93131032099922,-0.36422669589189915,-0.03224258191430984,1.0863657217845013,185.0561661425398,121.92238119766283)"> <svg viewBox="0 0 189 111" style="" height="111" width="189" class="main-svg" xmlns:xlink="http://www.w3.org/1999/xlink" xmlns="http://www.w3.org/2000/svg"><rect style="fill: rgb(255, 255, 255); fill-opacity: 1;" height="111" width="189" y="0" x="0"/><defs id="defs-136545"><g class="clips"><clipPath class="plotclip" id="clip136545xyplot"><rect height="96" width="162"/></clipPath><clipPath id="clip136545x" class="axesclip"><rect height="111" width="162" y="0" x="1"/></clipPath><clipPath id="clip136545y" class="axesclip"><rect height="96" width="189" y="8" x="0"/></clipPath><clipPath id="clip136545xy" class="axesclip"><rect height="96" width="162" y="8" x="1"/></clipPath></g><g class="gradients"/></defs><g class="bglayer"><rect style="fill: rgb(255, 255, 255); fill-opacity: 0.01; stroke-width: 0;" height="96" width="162" y="8" x="1" class="bg"/></g><g class="layer-below"><g class="imagelayer"/><g class="shapelayer"/></g><g class="cartesianlayer"><g class="subplot xy"><g class="layer-subplot"><g class="shapelayer"/><g class="imagelayer"/></g><g class="gridlayer"><g class="x"/><g class="y"/></g><g class="zerolinelayer"><path style="stroke: rgb(68, 68, 68); stroke-opacity: 1; stroke-width: 1px;" d="M1,0h162" transform="translate(0,104)" class="yzl zl crisp"/></g><path class="xlines-below"/><path class="ylines-below"/><g class="overlines-below"/><g class="xaxislayer-below"/><g class="yaxislayer-below"/><g class="overaxes-below"/><g clip-path="url('#clip136545xyplot')" transform="translate(1, 8)" class="plot"><g class="scatterlayer mlayer"><g style="stroke-miterlimit: 2; opacity: 1;" class="trace scatter tracef4d4a0"><g class="fills"/><g class="errorbars"/><g class="lines"><path style="vector-effect: non-scaling-stroke; fill: none; stroke: rgb(68, 68, 68); stroke-opacity: 1; stroke-width: 2px; opacity: 1;" d="M32.4,86.4L64.8,0L97.2,86.4" class="js-line"/></g><g class="points"/><g class="text"/></g><g style="stroke-miterlimit: 2; opacity: 1;" class="trace scatter tracea145b3"><g class="fills"/><g class="errorbars"/><g class="lines"><path style="vector-effect: non-scaling-stroke; fill: none; stroke: rgb(68, 68, 68); stroke-opacity: 1; stroke-width: 2px; opacity: 1; stroke-dasharray: 15px, 15px;" d="M40.5,86.4L113.4,0L153.9,86.4" class="js-line"/></g><g class="points"/><g class="text"/></g><g style="stroke-miterlimit: 2; opacity: 1;" class="trace scatter tracefb67a8"><g class="fills"/><g class="errorbars"/><g class="lines"><path style="vector-effect: non-scaling-stroke; fill: none; stroke: rgb(181, 181, 181); stroke-opacity: 1; stroke-width: 2px; opacity: 1;" d="M0,28.8L162,28.8" class="js-line"/></g><g class="points"/><g class="text"/></g><g style="stroke-miterlimit: 2; opacity: 1;" class="trace scatter traced63d31"><g class="fills"/><g class="errorbars"/><g class="lines"/><g class="points"><path style="opacity: 1; stroke: rgb(0, 0, 0); stroke-opacity: 1; stroke-width: 2px; fill: none;" d="M4.5,4.5H-4.5V-4.5H4.5ZM0,0.5L0.5,0L0,-0.5L-0.5,0Z" transform="translate(54,28.8)" class="point"/></g><g class="text"/></g><g style="stroke-miterlimit: 2; opacity: 1;" class="trace scatter trace5f1958"><g class="fills"/><g class="errorbars"/><g class="lines"/><g class="points"><path style="opacity: 1; stroke: rgb(0, 0, 0); stroke-opacity: 1; stroke-width: 1px; fill: none;" d="M-6.35,2.75H6.35L0,-5.5Z" transform="translate(75.6,28.8)" class="point"/></g><g class="text"/></g><g style="stroke-miterlimit: 2; opacity: 1;" class="trace scatter trace627367"><g class="fills"/><g class="errorbars"/><g class="lines"><path style="vector-effect: non-scaling-stroke; fill: none; stroke: rgb(0, 0, 0); stroke-opacity: 1; stroke-width: 3px; opacity: 1; stroke-dasharray: 3px, 3px;" d="M54,70.08L54,28.8" class="js-line"/></g><g class="points"/><g class="text"/></g><g style="stroke-miterlimit: 2; opacity: 1;" class="trace scatter trace943413"><g class="fills"/><g class="errorbars"/><g class="lines"><path style="vector-effect: non-scaling-stroke; fill: none; stroke: rgb(10, 10, 10); stroke-opacity: 1; stroke-width: 3px; opacity: 1; stroke-dasharray: 3px, 3px;" d="M75.6,28.8L75.6,45.12" class="js-line"/></g><g class="points"/><g class="text"/></g><g style="stroke-miterlimit: 2; opacity: 1;" class="trace scatter trace4f14f8"><g class="fills"/><g class="errorbars"/><g class="lines"/><g class="points"><path style="opacity: 1; stroke-width: 0px; fill: rgb(0, 0, 0); fill-opacity: 1;" d="M5.5,5.5H-5.5V-5.5H5.5Z" transform="translate(54,70.08)" class="point"/></g><g class="text"/></g><g style="stroke-miterlimit: 2; opacity: 1;" class="trace scatter traceb6f40c"><g class="fills"/><g class="errorbars"/><g class="lines"/><g class="points"><path style="opacity: 1; stroke-width: 0px; fill: rgb(0, 0, 0); fill-opacity: 1;" d="M-8.08,3.5H8.08L0,-7Z" transform="translate(75.6,45.12)" class="point"/></g><g class="text"/></g></g></g><g class="overplot"/><path style="fill: none;" d="M0,0" class="xlines-above crisp"/><path style="fill: none; stroke-width: 1px; stroke: rgb(68, 68, 68); stroke-opacity: 1;" d="M163.5,8V104" class="ylines-above crisp"/><g class="overlines-above"/><g class="xaxislayer-above"/><g class="yaxislayer-above"><path style="stroke: rgb(68, 68, 68); stroke-opacity: 1; stroke-width: 1px;" transform="translate(0,84.8)" d="M163,0h-10" class="ytick ticks crisp"/><path style="stroke: rgb(68, 68, 68); stroke-opacity: 1; stroke-width: 1px;" transform="translate(0,65.6)" d="M163,0h-10" class="ytick ticks crisp"/><path style="stroke: rgb(68, 68, 68); stroke-opacity: 1; stroke-width: 1px;" transform="translate(0,46.4)" d="M163,0h-10" class="ytick ticks crisp"/><path style="stroke: rgb(68, 68, 68); stroke-opacity: 1; stroke-width: 1px;" transform="translate(0,27.2)" d="M163,0h-10" class="ytick ticks crisp"/><g class="ytick"><text style="font-family: 'Open Sans', verdana, arial, sans-serif; font-size: 12px; fill: rgb(68, 68, 68); fill-opacity: 1; white-space: pre;" transform="translate(0,104)" y="4.199999999999999" x="166.4" text-anchor="start">0</text></g><g class="ytick"><text style="font-family: 'Open Sans', verdana, arial, sans-serif; font-size: 12px; fill: rgb(68, 68, 68); fill-opacity: 1; white-space: pre;" transform="translate(0,84.8)" y="4.199999999999999" x="166.4" text-anchor="start">0.2</text></g><g class="ytick"><text style="font-family: 'Open Sans', verdana, arial, sans-serif; font-size: 12px; fill: rgb(68, 68, 68); fill-opacity: 1; white-space: pre;" transform="translate(0,65.6)" y="4.199999999999999" x="166.4" text-anchor="start">0.4</text></g><g class="ytick"><text style="font-family: 'Open Sans', verdana, arial, sans-serif; font-size: 12px; fill: rgb(68, 68, 68); fill-opacity: 1; white-space: pre;" transform="translate(0,46.4)" y="4.199999999999999" x="166.4" text-anchor="start">0.6</text></g><g class="ytick"><text style="font-family: 'Open Sans', verdana, arial, sans-serif; font-size: 12px; fill: rgb(68, 68, 68); fill-opacity: 1; white-space: pre;" transform="translate(0,27.2)" y="4.199999999999999" x="166.4" text-anchor="start">0.8</text></g><g class="ytick"><text style="font-family: 'Open Sans', verdana, arial, sans-serif; font-size: 12px; fill: rgb(68, 68, 68); fill-opacity: 1; white-space: pre;" transform="translate(0,8)" y="4.199999999999999" x="166.4" text-anchor="start">1</text></g></g><g class="overaxes-above"/></g></g><g class="polarlayer"/><g class="ternarylayer"/><g class="geolayer"/><g class="funnelarealayer"/><g class="pielayer"/><g class="treemaplayer"/><g class="sunburstlayer"/><g class="glimages"/><defs id="topdefs-136545"><g class="clips"/></defs><g class="layer-above"><g class="imagelayer"/><g class="shapelayer"/></g><g class="infolayer"><g class="g-gtitle"/><g transform="translate(0,-5)" class="g-xtitle"><text style="font-family: 'Open Sans', verdana, arial, sans-serif; font-size: 1px; fill: rgb(68, 68, 68); opacity: 1; font-weight: normal; white-space: pre;" text-anchor="middle" y="116" x="82" class="xtitle"><tspan y="116" x="82" dy="0em" class="line"/><tspan y="116" x="82" dy="1.3em" class="line"/></text></g><g class="g-ytitle"><text style="font-family: 'Open Sans', verdana, arial, sans-serif; font-size: 1px; fill: rgb(68, 68, 68); opacity: 1; font-weight: normal; white-space: pre;" text-anchor="middle" y="56" x="175.5" transform="rotate(-90,175.5,56)" class="ytitle"><tspan y="56" x="175.5" dy="0em" class="line"/><tspan y="56" x="175.5" dy="1.3em" class="line"/></text></g></g></svg></g>
        <svg style="overflow: visible;" class="role-diagram-draw-area" xmlns="http://www.w3.org/2000/svg"><g style="stroke: black; fill: none;" class="shapes-region"><g class="composite-shape"><path style="stroke-width: 1; stroke: none; fill: none; fill-opacity: 1;" d="M41.32,9.59 L194.01,108.44 L195.05,252.5 L42.36,153.64 Z" class="real"/><path style="stroke-width: 1; stroke: rgb(0, 0, 0); fill: none; fill-opacity: 1;" d="M41.32,9.59 L42.36,153.64 M58.11,20.46 L59.14,164.51 M74.9,31.32 L75.93,175.38 M91.69,42.19 L92.72,186.25 M108.48,53.06 L109.51,197.12 M125.27,63.93 L126.3,207.99 M142.06,74.8 L143.09,218.86 M158.84,85.67 L159.88,229.73 M175.63,96.54 L176.66,240.6 M192.42,107.41 L193.45,251.47" class="real"/><path style="stroke-width: 1; stroke: rgb(0, 0, 0); fill: none; fill-opacity: 1;" d="M41.32,9.59 L194.01,108.44 M41.5,33.52 L194.19,132.38 M41.67,57.46 L194.36,156.31 M41.84,81.4 L194.53,180.25 M42.01,105.33 L194.7,204.19 M42.18,129.27 L194.87,228.12 M42.35,153.21 L195.04,252.06" class="real"/><path style="stroke-width: 1; stroke: rgb(0, 0, 0); fill: none; fill-opacity: 1;" d="" class="real"/></g><g class="composite-shape"><rect style="transform: matrix(0.93131, -0.364227, 0.364227, 0.93131, -35.3073, 108.934); stroke: none;" height="111.43449898655344" width="188.7604383894021" y="92.35814856914992" x="176.7772137595535" ry="0" rx="0" class="real"/></g><g class="arrow-line"><path style="stroke: rgb(0, 0, 0); stroke-width: 1; fill: none; fill-opacity: 1;" d="M34.34,146.21 L33.34,6.59" stroke-dasharray="" class="connection real"/><g style="stroke: rgb(0, 0, 0); stroke-width: 1;" transform="matrix(0.007155788862700713,0.9999743970151198,-0.9999743970151198,0.007155788862700713,33.32450406531789,4.586271041887841)" stroke="#000"><path d="M10.93,-3.29 Q4.96,-0.45 0,0 Q4.96,0.45 10.93,3.29"/></g><g style="stroke: rgb(0, 0, 0); stroke-width: 1;" transform="matrix(-0.00715578886270059,-0.9999743970151198,0.9999743970151198,-0.00715578886270059,34.35224115182052,148.20576472518388)" stroke="#000"><path d="M10.93,-3.29 Q4.96,-0.45 0,0 Q4.96,0.45 10.93,3.29"/></g></g><g class="arrow-line"><path style="stroke: rgb(0, 0, 0); stroke-width: 1; fill: none; fill-opacity: 1;" d="M27.33,0.83 L58.11,20.46" stroke-dasharray="" class="connection real"/></g><g class="arrow-line"><path style="stroke: rgb(0, 0, 0); stroke-width: 1; fill: none; fill-opacity: 1;" d="M26.96,143.39 L57.74,163.02" stroke-dasharray="" class="connection real"/></g><g class="arrow-line"><path style="stroke: rgb(0, 0, 0); stroke-width: 1; fill: none; fill-opacity: 1;" d="M45.03,167.29 L192.77,262.94" stroke-dasharray="" class="connection real"/><g style="stroke: rgb(0, 0, 0); stroke-width: 1;" transform="matrix(-0.8394302097344095,-0.5434674994746652,0.5434674994746652,-0.8394302097344095,194.4496789040143,264.0299146306235)" stroke="#000"><path d="M10.93,-3.29 Q4.96,-0.45 0,0 Q4.96,0.45 10.93,3.29"/></g><g style="stroke: rgb(0, 0, 0); stroke-width: 1;" transform="matrix(0.8394302097344098,0.5434674994746647,-0.5434674994746647,0.8394302097344098,43.35224115182051,166.20576472518388)" stroke="#000"><path d="M10.93,-3.29 Q4.96,-0.45 0,0 Q4.96,0.45 10.93,3.29"/></g></g><g class="arrow-line"><path style="stroke: rgb(0, 0, 0); stroke-width: 1; fill: none; fill-opacity: 1;" d="M41.78,130.42 L42.93,175.99" stroke-dasharray="" class="connection real"/></g><g class="arrow-line"><path style="stroke: rgb(0, 0, 0); stroke-width: 1; fill: none; fill-opacity: 1;" d="M193.28,227.09 L194.43,272.66" stroke-dasharray="" class="connection real"/></g><g class="composite-shape"><path style="stroke-width: 1; stroke: rgb(0, 0, 0); fill: rgb(0, 0, 0); fill-opacity: 1;" d="M182.49,150.97 L190,172.17 L177.99,164.53 Z" class="real"/></g><g/></g><g/><g/><g/></svg>
        <svg style="width:700px;height:275.3333435058594px;font-family:Asana-Math, Asana;background:#FFF;" height="275.3333435058594" width="700" xmlns:xlink="http://www.w3.org/1999/xlink" xmlns="http://www.w3.org/2000/svg"><g transform="matrix(0.8772299651572215,0.48007039924396505,0.1695196258117197,1.2327227721288674,-10.67083455838435,-26.040590443761303)"><g><g><g transform="matrix(1,0,0,1,1.984375,80.8125)"><path fill-opacity="1" fill="rgb(0,0,0)" stroke-width="8" stroke-opacity="1" stroke="rgb(0,0,0)" d="M316 -3C388 -3 437 8 489 34C645 114 741 265 741 431C741 529 711 599 650 642C604 675 519 693 424 692L220 689L210 689C201 689 198 689 97 692L94 664L147 662C171 661 182 653 182 635C182 621 178 589 173 559L86 55C81 31 56 29 33 23L28 -3L121 0L176 0C211 0 282 -3 316 -3ZM384 655C566 655 649 579 649 415C649 225 549 41 329 41C285 41 236 46 168 56C168 68 169 75 172 93L268 650C291 650 349 655 384 655Z" transform="matrix(0.017,0,0,-0.017,0,0)"/></g></g><g><g><g><g><g transform="matrix(1,0,0,1,15.703125,83.81665649414063)"><path fill-opacity="1" fill="rgb(0,0,0)" stroke-width="8" stroke-opacity="1" stroke="rgb(0,0,0)" d="M345 437L329 437L350 549C366 635 394 673 440 673C470 673 497 658 512 634L522 638C527 654 537 685 545 705L550 720C534 727 503 733 480 733C469 733 453 730 445 726C421 715 339 654 316 630C294 608 282 578 271 521L256 442C215 422 195 414 170 405L165 383L246 383L237 327C207 132 170 -54 148 -123C130 -182 100 -213 64 -213C41 -213 30 -206 12 -184L-2 -188C-6 -211 -20 -259 -25 -268C-16 -273 -1 -276 10 -276C51 -276 105 -245 144 -198C215 -114 235 -18 319 383L423 383C427 402 434 425 440 439L436 446C407 439 408 437 345 437ZM675 390L619 107C618 99 606 61 606 31C606 6 617 -9 636 -9C671 -9 706 11 784 74L815 99L805 117L760 86C731 66 711 56 700 56C691 56 686 64 686 76C686 102 700 183 729 328L742 390L849 390L860 440C822 436 788 434 750 434C766 528 777 577 795 631L784 646C764 634 737 622 706 610L681 440C637 419 611 408 593 403L591 390ZM1048 420C1069 420 1085 421 1111 424C1000 304 958 221 958 121C958 44 1004 -11 1068 -11C1206 -11 1359 236 1359 384C1359 441 1333 482 1297 482C1284 482 1272 478 1264 470L1214 423L1225 404C1234 410 1243 413 1252 413C1279 413 1295 390 1295 350C1295 202 1198 39 1110 39C1061 39 1030 81 1030 146C1030 251 1069 342 1167 464L1157 482C1137 473 1124 470 1096 470C1068 470 1026 472 997 475L985 476C979 477 974 477 973 477C961 477 952 475 941 470C927 443 916 407 903 352L925 352L942 394C949 411 969 422 993 422C1026 422 1010 420 1048 420Z" transform="matrix(0.0119,0,0,-0.0119,0,0)"/></g></g></g></g></g></g></g><g transform="matrix(0.8349439275612918,0.5503350232617623,0.017518443380934,1.2092321168135454,12.94774016595997,-101.02059871662095)"><g><g><g transform="matrix(1,0,0,1,77.25,221.29165649414062)"><path fill-opacity="1" fill="rgb(0,0,0)" stroke-width="8" stroke-opacity="1" stroke="rgb(0,0,0)" d="M582 103L237 692L75 692L70 664L105 662C150 660 184 615 185 606L92 102C80 40 74 32 38 28L7 25L2 -3L113 0C125 0 126 0 223 -3L228 25L186 28C146 31 137 39 137 72C137 80 138 91 140 102L220 566L558 -11L608 -11L702 542C723 655 725 659 762 662L799 664L802 691L589 692L584 664L631 662C657 661 667 654 667 638C667 631 584 116 582 103Z" transform="matrix(0.017,0,0,-0.017,0,0)"/></g></g><g><g transform="matrix(1,0,0,1,93.86456298828125,221.29165649414062)"><path fill-opacity="1" fill="rgb(0,0,0)" stroke-width="8" stroke-opacity="1" stroke="rgb(0,0,0)" d="M611 37L376 271L611 505L568 547L335 313L101 547L59 505L293 271L59 37L101 -5L335 229L568 -5Z" transform="matrix(0.017,0,0,-0.017,0,0)"/></g></g><g><g transform="matrix(1,0,0,1,108.625,221.29165649414062)"><path fill-opacity="1" fill="rgb(0,0,0)" stroke-width="8" stroke-opacity="1" stroke="rgb(0,0,0)" d="M24 388L31 368L63 389C100 412 103 414 110 414C121 414 128 404 128 389C128 338 87 145 46 2L53 -9C78 -2 101 4 123 8C142 134 163 199 209 268C263 352 338 414 383 414C394 414 400 405 400 390C400 372 397 351 389 319L337 107C328 70 324 47 324 31C324 6 335 -9 354 -9C380 -9 416 12 514 85L504 103L478 86C449 67 427 56 417 56C410 56 404 65 404 76C404 81 405 92 406 96L472 372C479 401 483 429 483 446C483 469 472 482 452 482C410 482 341 444 282 389C244 354 216 320 164 247L202 408C206 426 208 438 208 449C208 470 200 482 185 482C164 482 125 460 52 408Z" transform="matrix(0.017,0,0,-0.017,0,0)"/></g></g><g><g><g/></g></g></g></g><g transform="matrix(0.9399311668734952,-0.34136403082315175,-0.008006510779967058,1.0668154968497132,14.367779046826683,68.57965817778295)"><g><g><g transform="matrix(1,0,0,1,205.234375,119.290625)"><path fill-opacity="1" fill="rgb(0,0,0)" stroke-width="8" stroke-opacity="1" stroke="rgb(0,0,0)" d="M409 -15C458 -15 530 43 565 74L565 81C562 86 558 90 553 92C531 76 472 25 461 77C461 151 506 393 533 463L533 473C511 465 488 459 465 456L455 445C453 381 421 203 395 146C372 97 311 42 254 42C199 42 184 90 185 137C188 248 238 356 241 467C213 462 187 457 161 453C179 227 9 -91 53 -286C76 -285 109 -281 131 -273L131 -261C81 -173 121 -38 138 36L138 35C204 -77 344 37 395 104L395 101C387 65 354 -15 409 -15Z" transform="matrix(0.0119,0,0,-0.0119,0,0)"/></g></g><g><g><g><g><g transform="matrix(1,0,0,1,212.84893798828125,122.05396850585937)"><path fill-opacity="1" fill="rgb(0,0,0)" stroke-width="8" stroke-opacity="1" stroke="rgb(0,0,0)" d="M567 55C567 39 552 30 524 28L480 25L480 -3C582 0 582 0 602 0C622 0 622 0 724 -3L724 25L698 28C651 35 650 35 642 80L555 705L509 705L136 112C100 56 82 40 48 32L28 27L28 -3C120 0 120 0 140 0C159 0 161 0 247 -3L247 25L195 28C179 29 164 38 164 47C164 55 171 69 190 102L292 277L538 277L563 89L563 86C563 84 567 69 567 55ZM496 601L533 313L317 313Z" transform="matrix(0.00833,0,0,-0.00833,0,0)"/></g></g><g><g><g><g><g transform="matrix(1,0,0,1,219.34893798828125,122.85703149414063)"><path fill-opacity="1" fill="rgb(0,0,0)" stroke-width="8" stroke-opacity="1" stroke="rgb(0,0,0)" d="M240 722L228 733C176 707 140 698 68 691L64 670L112 670C136 670 146 663 146 646C146 638 145 629 144 622L96 354C82 279 66 210 14 1L23 -9L90 8L113 132C122 180 146 225 180 259C249 59 281 -9 306 -9C319 -9 343 4 387 35L433 67L425 86L382 62C368 54 361 52 353 52C343 52 336 58 327 75C292 139 270 193 231 316L245 330C306 391 352 416 402 416C410 416 421 414 438 410L455 473C437 479 419 482 407 482C341 482 258 405 133 230ZM502 388L509 368L541 389C578 412 581 414 588 414C598 414 606 404 606 391C606 384 602 361 598 347L532 107C524 76 519 49 519 30C519 6 530 -9 549 -9C575 -9 611 12 709 85L699 103L673 86C644 67 621 56 612 56C605 56 599 66 599 76C599 86 601 95 606 116L683 420C687 437 689 448 689 456C689 473 680 482 664 482C642 482 605 461 530 408ZM696 712C667 712 638 679 638 645C638 620 653 604 677 604C708 604 732 633 732 671C732 695 717 712 696 712Z" transform="matrix(0.005831,0,0,-0.005831,0,0)"/></g></g></g></g></g></g></g></g><g><g transform="matrix(1,0,0,1,224.890625,119.95728149414063)"><path fill-opacity="1" fill="rgb(0,0,0)" stroke-width="8" stroke-opacity="1" stroke="rgb(0,0,0)" d="M146 266C146 526 243 632 301 700L282 726C225 675 60 542 60 266C60 159 85 58 133 -32C168 -99 200 -138 282 -215L301 -194C255 -137 146 -15 146 266Z" transform="matrix(0.0119,0,0,-0.0119,0,0)"/></g></g><g><g transform="matrix(1,0,0,1,228.84893798828125,119.290625)"><path fill-opacity="1" fill="rgb(0,0,0)" stroke-width="8" stroke-opacity="1" stroke="rgb(0,0,0)" d="M9 1C24 -7 40 -11 52 -11C85 -11 124 18 155 65L231 182L242 113C255 28 278 -11 314 -11C336 -11 368 6 400 35L449 79L440 98C404 68 379 53 363 53C348 53 335 63 325 83C316 102 305 139 300 168L282 269L317 318C364 383 391 406 422 406C438 406 450 398 455 383L469 387L484 472C472 479 463 482 454 482C414 482 374 446 312 354L275 299L269 347C257 446 230 482 171 482C145 482 123 474 114 461L56 378L73 368C103 402 123 416 142 416C175 416 197 375 214 277L225 215L185 153C142 86 108 54 80 54C65 54 54 58 52 63L41 91L21 88C21 53 13 27 9 1Z" transform="matrix(0.0119,0,0,-0.0119,0,0)"/></g></g><g><g><g><g><g transform="matrix(1,0,0,1,235.140625,122.05396850585937)"><path fill-opacity="1" fill="rgb(0,0,0)" stroke-width="8" stroke-opacity="1" stroke="rgb(0,0,0)" d="M34 388L41 368L73 389C110 412 113 414 120 414C130 414 138 404 138 391C138 384 134 361 130 347L64 107C56 76 51 49 51 30C51 6 62 -9 81 -9C107 -9 143 12 241 85L231 103L205 86C176 67 153 56 144 56C137 56 131 66 131 76C131 86 133 95 138 116L215 420C219 437 221 448 221 456C221 473 212 482 196 482C174 482 137 461 62 408ZM228 712C199 712 170 679 170 645C170 620 185 604 209 604C240 604 264 633 264 671C264 695 249 712 228 712Z" transform="matrix(0.00833,0,0,-0.00833,0,0)"/></g></g></g></g></g><g><g transform="matrix(1,0,0,1,238.16143798828125,119.95728149414063)"><path fill-opacity="1" fill="rgb(0,0,0)" stroke-width="8" stroke-opacity="1" stroke="rgb(0,0,0)" d="M51 726L32 700C87 636 187 526 187 266C187 -10 83 -131 32 -194L51 -215C104 -165 273 -23 273 265C273 542 108 675 51 726Z" transform="matrix(0.0119,0,0,-0.0119,0,0)"/></g></g></g></g><g transform="matrix(0.9399311668734952,-0.34136403082315175,-0.008006510779967058,1.0668154968497132,19.182094850630506,99.86169412654229)"><g><g><g transform="matrix(1,0,0,1,290.2447509765625,84.36353149414063)"><path fill-opacity="1" fill="rgb(0,0,0)" stroke-width="8" stroke-opacity="1" stroke="rgb(0,0,0)" d="M409 -15C458 -15 530 43 565 74L565 81C562 86 558 90 553 92C531 76 472 25 461 77C461 151 506 393 533 463L533 473C511 465 488 459 465 456L455 445C453 381 421 203 395 146C372 97 311 42 254 42C199 42 184 90 185 137C188 248 238 356 241 467C213 462 187 457 161 453C179 227 9 -91 53 -286C76 -285 109 -281 131 -273L131 -261C81 -173 121 -38 138 36L138 35C204 -77 344 37 395 104L395 101C387 65 354 -15 409 -15Z" transform="matrix(0.0119,0,0,-0.0119,0,0)"/></g></g><g><g><g><g><g transform="matrix(1,0,0,1,297.859375,87.126875)"><path fill-opacity="1" fill="rgb(0,0,0)" stroke-width="8" stroke-opacity="1" stroke="rgb(0,0,0)" d="M567 55C567 39 552 30 524 28L480 25L480 -3C582 0 582 0 602 0C622 0 622 0 724 -3L724 25L698 28C651 35 650 35 642 80L555 705L509 705L136 112C100 56 82 40 48 32L28 27L28 -3C120 0 120 0 140 0C159 0 161 0 247 -3L247 25L195 28C179 29 164 38 164 47C164 55 171 69 190 102L292 277L538 277L563 89L563 86C563 84 567 69 567 55ZM496 601L533 313L317 313Z" transform="matrix(0.00833,0,0,-0.00833,0,0)"/></g></g><g><g><g><g><g transform="matrix(1,0,0,1,304.359375,88.596625)"><path fill-opacity="1" fill="rgb(0,0,0)" stroke-width="8" stroke-opacity="1" stroke="rgb(0,0,0)" d="M34 388L41 368L73 389C110 412 113 414 120 414C130 414 138 404 138 391C138 384 134 361 130 347L64 107C56 76 51 49 51 30C51 6 62 -9 81 -9C107 -9 143 12 241 85L231 103L205 86C176 67 153 56 144 56C137 56 131 66 131 76C131 86 133 95 138 116L215 420C219 437 221 448 221 456C221 473 212 482 196 482C174 482 137 461 62 408ZM228 712C199 712 170 679 170 645C170 620 185 604 209 604C240 604 264 633 264 671C264 695 249 712 228 712Z" transform="matrix(0.005831,0,0,-0.005831,0,0)"/></g></g></g></g></g><g><g transform="matrix(1,0,0,1,306.4635009765625,87.126875)"><path fill-opacity="1" fill="rgb(0,0,0)" stroke-width="8" stroke-opacity="1" stroke="rgb(0,0,0)" d="M104 470C161 543 199 610 233 696L220 709C184 697 174 694 123 679C117 599 93 533 45 456L60 446Z" transform="matrix(0.00833,0,0,-0.00833,0,0)"/></g></g></g></g></g><g><g transform="matrix(1,0,0,1,309.484375,85.03021850585938)"><path fill-opacity="1" fill="rgb(0,0,0)" stroke-width="8" stroke-opacity="1" stroke="rgb(0,0,0)" d="M146 266C146 526 243 632 301 700L282 726C225 675 60 542 60 266C60 159 85 58 133 -32C168 -99 200 -138 282 -215L301 -194C255 -137 146 -15 146 266Z" transform="matrix(0.0119,0,0,-0.0119,0,0)"/></g></g><g><g transform="matrix(1,0,0,1,313.44268798828125,84.36353149414063)"><path fill-opacity="1" fill="rgb(0,0,0)" stroke-width="8" stroke-opacity="1" stroke="rgb(0,0,0)" d="M9 1C24 -7 40 -11 52 -11C85 -11 124 18 155 65L231 182L242 113C255 28 278 -11 314 -11C336 -11 368 6 400 35L449 79L440 98C404 68 379 53 363 53C348 53 335 63 325 83C316 102 305 139 300 168L282 269L317 318C364 383 391 406 422 406C438 406 450 398 455 383L469 387L484 472C472 479 463 482 454 482C414 482 374 446 312 354L275 299L269 347C257 446 230 482 171 482C145 482 123 474 114 461L56 378L73 368C103 402 123 416 142 416C175 416 197 375 214 277L225 215L185 153C142 86 108 54 80 54C65 54 54 58 52 63L41 91L21 88C21 53 13 27 9 1Z" transform="matrix(0.0119,0,0,-0.0119,0,0)"/></g></g><g><g><g><g><g transform="matrix(1,0,0,1,319.734375,87.126875)"><path fill-opacity="1" fill="rgb(0,0,0)" stroke-width="8" stroke-opacity="1" stroke="rgb(0,0,0)" d="M34 388L41 368L73 389C110 412 113 414 120 414C130 414 138 404 138 391C138 384 134 361 130 347L64 107C56 76 51 49 51 30C51 6 62 -9 81 -9C107 -9 143 12 241 85L231 103L205 86C176 67 153 56 144 56C137 56 131 66 131 76C131 86 133 95 138 116L215 420C219 437 221 448 221 456C221 473 212 482 196 482C174 482 137 461 62 408ZM228 712C199 712 170 679 170 645C170 620 185 604 209 604C240 604 264 633 264 671C264 695 249 712 228 712Z" transform="matrix(0.00833,0,0,-0.00833,0,0)"/></g></g></g></g></g><g><g transform="matrix(1,0,0,1,322.75518798828125,85.03021850585938)"><path fill-opacity="1" fill="rgb(0,0,0)" stroke-width="8" stroke-opacity="1" stroke="rgb(0,0,0)" d="M51 726L32 700C87 636 187 526 187 266C187 -10 83 -131 32 -194L51 -215C104 -165 273 -23 273 265C273 542 108 675 51 726Z" transform="matrix(0.0119,0,0,-0.0119,0,0)"/></g></g></g></g></svg>
</svg>